<mxfile host="Electron" modified="2024-05-20T14:49:08.651Z" agent="Mozilla/5.0 (X11; Linux x86_64) AppleWebKit/537.36 (KHTML, like Gecko) draw.io/23.1.5 Chrome/120.0.6099.291 Electron/28.3.0 Safari/537.36" etag="KwifV76VgXCRZ5Aowv1e" version="23.1.5" type="device">
  <diagram name="Page-1" id="bmTPYpdwqM7_A1EGQ26A">
    <mxGraphModel dx="1311" dy="771" grid="1" gridSize="10" guides="1" tooltips="1" connect="1" arrows="1" fold="1" page="1" pageScale="1" pageWidth="850" pageHeight="1100" math="0" shadow="0">
      <root>
        <mxCell id="0" />
        <mxCell id="1" parent="0" />
        <mxCell id="DRVLlOOU_TsHvvWP_Fq2-27" value="x86-64" style="rounded=1;whiteSpace=wrap;html=1;fontSize=22;align=left;spacingRight=23;spacingLeft=23;" vertex="1" parent="1">
          <mxGeometry x="940" y="630" width="250" height="120" as="geometry" />
        </mxCell>
        <mxCell id="DRVLlOOU_TsHvvWP_Fq2-11" style="edgeStyle=orthogonalEdgeStyle;rounded=0;orthogonalLoop=1;jettySize=auto;html=1;exitX=1;exitY=0.5;exitDx=0;exitDy=0;entryX=0;entryY=0.5;entryDx=0;entryDy=0;" edge="1" parent="1" source="DRVLlOOU_TsHvvWP_Fq2-1" target="DRVLlOOU_TsHvvWP_Fq2-10">
          <mxGeometry relative="1" as="geometry" />
        </mxCell>
        <mxCell id="DRVLlOOU_TsHvvWP_Fq2-1" value="&lt;font style=&quot;font-size: 22px;&quot;&gt;Source code&lt;/font&gt;" style="rounded=1;whiteSpace=wrap;html=1;" vertex="1" parent="1">
          <mxGeometry x="360" y="310" width="120" height="120" as="geometry" />
        </mxCell>
        <mxCell id="DRVLlOOU_TsHvvWP_Fq2-2" value="&lt;span style=&quot;font-size: 22px;&quot;&gt;AST&lt;/span&gt;" style="rounded=1;whiteSpace=wrap;html=1;fontSize=22;" vertex="1" parent="1">
          <mxGeometry x="680" y="310" width="120" height="120" as="geometry" />
        </mxCell>
        <mxCell id="DRVLlOOU_TsHvvWP_Fq2-33" style="edgeStyle=orthogonalEdgeStyle;rounded=0;orthogonalLoop=1;jettySize=auto;html=1;exitX=1;exitY=0.5;exitDx=0;exitDy=0;entryX=0;entryY=0.5;entryDx=0;entryDy=0;" edge="1" parent="1" source="DRVLlOOU_TsHvvWP_Fq2-6" target="DRVLlOOU_TsHvvWP_Fq2-18">
          <mxGeometry relative="1" as="geometry" />
        </mxCell>
        <mxCell id="DRVLlOOU_TsHvvWP_Fq2-6" value="&lt;span style=&quot;font-size: 22px;&quot;&gt;Optimised AST&lt;/span&gt;" style="rounded=1;whiteSpace=wrap;html=1;fontSize=22;" vertex="1" parent="1">
          <mxGeometry x="1040" y="310" width="120" height="120" as="geometry" />
        </mxCell>
        <mxCell id="DRVLlOOU_TsHvvWP_Fq2-34" style="edgeStyle=orthogonalEdgeStyle;rounded=0;orthogonalLoop=1;jettySize=auto;html=1;exitX=1;exitY=0.5;exitDx=0;exitDy=0;entryX=0;entryY=0.5;entryDx=0;entryDy=0;" edge="1" parent="1" source="DRVLlOOU_TsHvvWP_Fq2-8" target="DRVLlOOU_TsHvvWP_Fq2-21">
          <mxGeometry relative="1" as="geometry" />
        </mxCell>
        <mxCell id="DRVLlOOU_TsHvvWP_Fq2-8" value="&lt;span style=&quot;font-size: 22px;&quot;&gt;IR&lt;/span&gt;" style="rounded=1;whiteSpace=wrap;html=1;fontSize=22;" vertex="1" parent="1">
          <mxGeometry x="560" y="490" width="120" height="120" as="geometry" />
        </mxCell>
        <mxCell id="DRVLlOOU_TsHvvWP_Fq2-35" style="edgeStyle=orthogonalEdgeStyle;rounded=0;orthogonalLoop=1;jettySize=auto;html=1;exitX=1;exitY=0.5;exitDx=0;exitDy=0;entryX=0;entryY=0.5;entryDx=0;entryDy=0;" edge="1" parent="1" source="DRVLlOOU_TsHvvWP_Fq2-9" target="DRVLlOOU_TsHvvWP_Fq2-21">
          <mxGeometry relative="1" as="geometry" />
        </mxCell>
        <mxCell id="DRVLlOOU_TsHvvWP_Fq2-9" value="&lt;span style=&quot;font-size: 22px;&quot;&gt;IOLib.o&lt;/span&gt;" style="rounded=1;whiteSpace=wrap;html=1;fontSize=22;" vertex="1" parent="1">
          <mxGeometry x="560" y="630" width="120" height="120" as="geometry" />
        </mxCell>
        <mxCell id="DRVLlOOU_TsHvvWP_Fq2-12" style="edgeStyle=orthogonalEdgeStyle;rounded=0;orthogonalLoop=1;jettySize=auto;html=1;exitX=1;exitY=0.5;exitDx=0;exitDy=0;entryX=0;entryY=0.5;entryDx=0;entryDy=0;" edge="1" parent="1" source="DRVLlOOU_TsHvvWP_Fq2-10" target="DRVLlOOU_TsHvvWP_Fq2-2">
          <mxGeometry relative="1" as="geometry" />
        </mxCell>
        <mxCell id="DRVLlOOU_TsHvvWP_Fq2-10" value="&lt;font style=&quot;font-size: 22px;&quot;&gt;Frontend&lt;/font&gt;" style="shape=parallelogram;perimeter=parallelogramPerimeter;whiteSpace=wrap;html=1;fixedSize=1;" vertex="1" parent="1">
          <mxGeometry x="510" y="340" width="140" height="60" as="geometry" />
        </mxCell>
        <mxCell id="DRVLlOOU_TsHvvWP_Fq2-13" style="edgeStyle=orthogonalEdgeStyle;rounded=0;orthogonalLoop=1;jettySize=auto;html=1;exitX=1;exitY=0.5;exitDx=0;exitDy=0;entryX=0;entryY=0.5;entryDx=0;entryDy=0;" edge="1" parent="1" target="DRVLlOOU_TsHvvWP_Fq2-15">
          <mxGeometry relative="1" as="geometry">
            <mxPoint x="800" y="370" as="sourcePoint" />
          </mxGeometry>
        </mxCell>
        <mxCell id="DRVLlOOU_TsHvvWP_Fq2-32" style="edgeStyle=orthogonalEdgeStyle;rounded=0;orthogonalLoop=1;jettySize=auto;html=1;exitX=1;exitY=0.5;exitDx=0;exitDy=0;entryX=0;entryY=0.5;entryDx=0;entryDy=0;" edge="1" parent="1" source="DRVLlOOU_TsHvvWP_Fq2-15" target="DRVLlOOU_TsHvvWP_Fq2-6">
          <mxGeometry relative="1" as="geometry" />
        </mxCell>
        <mxCell id="DRVLlOOU_TsHvvWP_Fq2-15" value="&lt;font style=&quot;font-size: 22px;&quot;&gt;Middleend&lt;/font&gt;" style="shape=parallelogram;perimeter=parallelogramPerimeter;whiteSpace=wrap;html=1;fixedSize=1;" vertex="1" parent="1">
          <mxGeometry x="830" y="340" width="170" height="60" as="geometry" />
        </mxCell>
        <mxCell id="DRVLlOOU_TsHvvWP_Fq2-18" value="&lt;font style=&quot;font-size: 22px;&quot;&gt;Backend&lt;/font&gt;" style="shape=parallelogram;perimeter=parallelogramPerimeter;whiteSpace=wrap;html=1;fixedSize=1;" vertex="1" parent="1">
          <mxGeometry x="1180" y="340" width="140" height="60" as="geometry" />
        </mxCell>
        <mxCell id="DRVLlOOU_TsHvvWP_Fq2-36" style="edgeStyle=orthogonalEdgeStyle;rounded=0;orthogonalLoop=1;jettySize=auto;html=1;exitX=1;exitY=0.5;exitDx=0;exitDy=0;entryX=0;entryY=0.5;entryDx=0;entryDy=0;" edge="1" parent="1" source="DRVLlOOU_TsHvvWP_Fq2-21" target="DRVLlOOU_TsHvvWP_Fq2-23">
          <mxGeometry relative="1" as="geometry" />
        </mxCell>
        <mxCell id="DRVLlOOU_TsHvvWP_Fq2-37" style="edgeStyle=orthogonalEdgeStyle;rounded=0;orthogonalLoop=1;jettySize=auto;html=1;exitX=1;exitY=0.5;exitDx=0;exitDy=0;entryX=0;entryY=0.5;entryDx=0;entryDy=0;" edge="1" parent="1" source="DRVLlOOU_TsHvvWP_Fq2-21" target="DRVLlOOU_TsHvvWP_Fq2-27">
          <mxGeometry relative="1" as="geometry" />
        </mxCell>
        <mxCell id="DRVLlOOU_TsHvvWP_Fq2-21" value="&lt;font style=&quot;font-size: 22px;&quot;&gt;IR Backend&lt;/font&gt;" style="shape=parallelogram;perimeter=parallelogramPerimeter;whiteSpace=wrap;html=1;fixedSize=1;" vertex="1" parent="1">
          <mxGeometry x="730" y="590" width="160" height="60" as="geometry" />
        </mxCell>
        <mxCell id="DRVLlOOU_TsHvvWP_Fq2-23" value="&lt;span style=&quot;font-size: 22px;&quot;&gt;SPU asm&lt;/span&gt;" style="rounded=1;whiteSpace=wrap;html=1;fontSize=22;" vertex="1" parent="1">
          <mxGeometry x="940" y="490" width="250" height="120" as="geometry" />
        </mxCell>
        <mxCell id="DRVLlOOU_TsHvvWP_Fq2-24" value="&lt;span style=&quot;font-size: 22px;&quot;&gt;nasm&lt;/span&gt;" style="rounded=1;whiteSpace=wrap;html=1;fontSize=22;" vertex="1" parent="1">
          <mxGeometry x="1050" y="640" width="120" height="40" as="geometry" />
        </mxCell>
        <mxCell id="DRVLlOOU_TsHvvWP_Fq2-26" value="&lt;span style=&quot;font-size: 22px;&quot;&gt;elf64&lt;/span&gt;" style="rounded=1;whiteSpace=wrap;html=1;fontSize=22;" vertex="1" parent="1">
          <mxGeometry x="1050" y="700" width="120" height="40" as="geometry" />
        </mxCell>
        <mxCell id="DRVLlOOU_TsHvvWP_Fq2-31" value="" style="endArrow=classic;html=1;rounded=0;exitX=1;exitY=0.5;exitDx=0;exitDy=0;entryX=0;entryY=0.5;entryDx=0;entryDy=0;" edge="1" parent="1" source="DRVLlOOU_TsHvvWP_Fq2-18" target="DRVLlOOU_TsHvvWP_Fq2-8">
          <mxGeometry width="50" height="50" relative="1" as="geometry">
            <mxPoint x="930" y="470" as="sourcePoint" />
            <mxPoint x="980" y="420" as="targetPoint" />
            <Array as="points">
              <mxPoint x="1330" y="370" />
              <mxPoint x="1330" y="460" />
              <mxPoint x="530" y="460" />
              <mxPoint x="530" y="550" />
            </Array>
          </mxGeometry>
        </mxCell>
      </root>
    </mxGraphModel>
  </diagram>
</mxfile>
